<svg width="298" height="256" viewBox="0 0 342 332" fill="none" xmlns="http://www.w3.org/2000/svg">
<g filter="url(#filter0_d_109_415)">
<rect x="100" y="100" width="142" height="132" rx="10" fill="white"/>
</g>
<path d="M114.7 125V117.8H115.785L118.275 122.9L120.765 117.8H121.85V125H120.725V120.385L118.515 125H118.035L115.83 120.385V125H114.7ZM125.71 125.15C125.163 125.15 124.683 125.032 124.27 124.795C123.856 124.558 123.533 124.23 123.3 123.81C123.07 123.39 122.955 122.907 122.955 122.36C122.955 121.77 123.068 121.258 123.295 120.825C123.521 120.388 123.836 120.05 124.24 119.81C124.643 119.57 125.11 119.45 125.64 119.45C126.2 119.45 126.675 119.582 127.065 119.845C127.458 120.105 127.75 120.473 127.94 120.95C128.13 121.427 128.201 121.988 128.155 122.635H126.96V122.195C126.956 121.608 126.853 121.18 126.65 120.91C126.446 120.64 126.126 120.505 125.69 120.505C125.196 120.505 124.83 120.658 124.59 120.965C124.35 121.268 124.23 121.713 124.23 122.3C124.23 122.847 124.35 123.27 124.59 123.57C124.83 123.87 125.18 124.02 125.64 124.02C125.936 124.02 126.191 123.955 126.405 123.825C126.621 123.692 126.788 123.5 126.905 123.25L128.095 123.61C127.888 124.097 127.568 124.475 127.135 124.745C126.705 125.015 126.23 125.15 125.71 125.15ZM123.85 122.635V121.725H127.565V122.635H123.85ZM135.609 125V121.72C135.609 121.35 135.517 121.062 135.334 120.855C135.15 120.645 134.902 120.54 134.589 120.54C134.395 120.54 134.222 120.585 134.069 120.675C133.915 120.762 133.794 120.892 133.704 121.065C133.614 121.235 133.569 121.438 133.569 121.675L133.034 121.36C133.03 120.987 133.114 120.658 133.284 120.375C133.457 120.088 133.69 119.865 133.984 119.705C134.277 119.545 134.604 119.465 134.964 119.465C135.56 119.465 136.017 119.645 136.334 120.005C136.654 120.362 136.814 120.832 136.814 121.415V125H135.609ZM129.114 125V119.6H130.179V121.275H130.329V125H129.114ZM132.369 125V121.735C132.369 121.358 132.277 121.065 132.094 120.855C131.91 120.645 131.66 120.54 131.344 120.54C131.037 120.54 130.79 120.645 130.604 120.855C130.42 121.065 130.329 121.338 130.329 121.675L129.789 121.315C129.789 120.965 129.875 120.65 130.049 120.37C130.222 120.09 130.455 119.87 130.749 119.71C131.045 119.547 131.377 119.465 131.744 119.465C132.147 119.465 132.484 119.552 132.754 119.725C133.027 119.895 133.23 120.128 133.364 120.425C133.5 120.718 133.569 121.05 133.569 121.42V125H132.369ZM140.713 125.15C140.186 125.15 139.745 125.025 139.388 124.775C139.031 124.525 138.763 124.185 138.583 123.755C138.403 123.322 138.313 122.837 138.313 122.3C138.313 121.757 138.403 121.27 138.583 120.84C138.763 120.41 139.026 120.072 139.373 119.825C139.723 119.575 140.155 119.45 140.668 119.45C141.178 119.45 141.62 119.575 141.993 119.825C142.37 120.072 142.661 120.41 142.868 120.84C143.075 121.267 143.178 121.753 143.178 122.3C143.178 122.84 143.076 123.325 142.873 123.755C142.67 124.185 142.383 124.525 142.013 124.775C141.643 125.025 141.21 125.15 140.713 125.15ZM138.108 125V117.8H139.323V121.21H139.173V125H138.108ZM140.528 124.07C140.841 124.07 141.1 123.992 141.303 123.835C141.506 123.678 141.656 123.467 141.753 123.2C141.853 122.93 141.903 122.63 141.903 122.3C141.903 121.973 141.853 121.677 141.753 121.41C141.653 121.14 141.498 120.927 141.288 120.77C141.078 120.61 140.811 120.53 140.488 120.53C140.181 120.53 139.931 120.605 139.738 120.755C139.545 120.902 139.401 121.108 139.308 121.375C139.218 121.638 139.173 121.947 139.173 122.3C139.173 122.65 139.218 122.958 139.308 123.225C139.401 123.492 139.546 123.7 139.743 123.85C139.943 123.997 140.205 124.07 140.528 124.07ZM146.735 125.15C146.188 125.15 145.708 125.032 145.295 124.795C144.882 124.558 144.558 124.23 144.325 123.81C144.095 123.39 143.98 122.907 143.98 122.36C143.98 121.77 144.093 121.258 144.32 120.825C144.547 120.388 144.862 120.05 145.265 119.81C145.668 119.57 146.135 119.45 146.665 119.45C147.225 119.45 147.7 119.582 148.09 119.845C148.483 120.105 148.775 120.473 148.965 120.95C149.155 121.427 149.227 121.988 149.18 122.635H147.985V122.195C147.982 121.608 147.878 121.18 147.675 120.91C147.472 120.64 147.152 120.505 146.715 120.505C146.222 120.505 145.855 120.658 145.615 120.965C145.375 121.268 145.255 121.713 145.255 122.3C145.255 122.847 145.375 123.27 145.615 123.57C145.855 123.87 146.205 124.02 146.665 124.02C146.962 124.02 147.217 123.955 147.43 123.825C147.647 123.692 147.813 123.5 147.93 123.25L149.12 123.61C148.913 124.097 148.593 124.475 148.16 124.745C147.73 125.015 147.255 125.15 146.735 125.15ZM144.875 122.635V121.725H148.59V122.635H144.875ZM150.296 125V119.6H151.361V120.915L151.231 120.745C151.297 120.565 151.386 120.402 151.496 120.255C151.609 120.105 151.744 119.982 151.901 119.885C152.034 119.795 152.181 119.725 152.341 119.675C152.504 119.622 152.671 119.59 152.841 119.58C153.011 119.567 153.176 119.573 153.336 119.6V120.725C153.176 120.678 152.991 120.663 152.781 120.68C152.574 120.697 152.387 120.755 152.221 120.855C152.054 120.945 151.917 121.06 151.811 121.2C151.707 121.34 151.631 121.5 151.581 121.68C151.531 121.857 151.506 122.048 151.506 122.255V125H150.296ZM156.18 125.15C155.513 125.15 154.971 125 154.555 124.7C154.138 124.4 153.885 123.978 153.795 123.435L155.025 123.245C155.088 123.512 155.228 123.722 155.445 123.875C155.661 124.028 155.935 124.105 156.265 124.105C156.555 124.105 156.778 124.048 156.935 123.935C157.095 123.818 157.175 123.66 157.175 123.46C157.175 123.337 157.145 123.238 157.085 123.165C157.028 123.088 156.901 123.015 156.705 122.945C156.508 122.875 156.206 122.787 155.8 122.68C155.346 122.56 154.986 122.432 154.72 122.295C154.453 122.155 154.261 121.99 154.145 121.8C154.028 121.61 153.97 121.38 153.97 121.11C153.97 120.773 154.058 120.48 154.235 120.23C154.411 119.98 154.658 119.788 154.975 119.655C155.291 119.518 155.665 119.45 156.095 119.45C156.515 119.45 156.886 119.515 157.21 119.645C157.536 119.775 157.8 119.96 158 120.2C158.2 120.44 158.323 120.722 158.37 121.045L157.14 121.265C157.11 121.035 157.005 120.853 156.825 120.72C156.648 120.587 156.411 120.512 156.115 120.495C155.831 120.478 155.603 120.522 155.43 120.625C155.256 120.725 155.17 120.867 155.17 121.05C155.17 121.153 155.205 121.242 155.275 121.315C155.345 121.388 155.485 121.462 155.695 121.535C155.908 121.608 156.225 121.698 156.645 121.805C157.075 121.915 157.418 122.042 157.675 122.185C157.935 122.325 158.121 122.493 158.235 122.69C158.351 122.887 158.41 123.125 158.41 123.405C158.41 123.948 158.211 124.375 157.815 124.685C157.421 124.995 156.876 125.15 156.18 125.15Z" fill="#BAB8D2"/>
<path d="M115.598 148L119.318 138.91H114.6V137.2H121.253V138.91L117.548 148H115.598ZM126.933 148.225C126.168 148.225 125.493 148.063 124.908 147.737C124.323 147.407 123.866 146.95 123.536 146.365C123.211 145.78 123.048 145.105 123.048 144.34V140.86C123.048 140.095 123.211 139.42 123.536 138.835C123.866 138.25 124.323 137.795 124.908 137.47C125.493 137.14 126.168 136.975 126.933 136.975C127.698 136.975 128.371 137.14 128.951 137.47C129.536 137.795 129.993 138.25 130.323 138.835C130.653 139.42 130.818 140.095 130.818 140.86V144.34C130.818 145.105 130.653 145.78 130.323 146.365C129.993 146.95 129.536 147.407 128.951 147.737C128.371 148.063 127.698 148.225 126.933 148.225ZM126.933 146.507C127.313 146.507 127.658 146.417 127.968 146.237C128.278 146.052 128.523 145.807 128.703 145.502C128.883 145.192 128.973 144.847 128.973 144.467V140.725C128.973 140.34 128.883 139.995 128.703 139.69C128.523 139.38 128.278 139.135 127.968 138.955C127.658 138.77 127.313 138.677 126.933 138.677C126.553 138.677 126.208 138.77 125.898 138.955C125.588 139.135 125.343 139.38 125.163 139.69C124.983 139.995 124.893 140.34 124.893 140.725V144.467C124.893 144.847 124.983 145.192 125.163 145.502C125.343 145.807 125.588 146.052 125.898 146.237C126.208 146.417 126.553 146.507 126.933 146.507ZM132.771 149.913L132.876 149.133C133.106 149.153 133.289 149.113 133.424 149.013C133.559 148.918 133.649 148.78 133.694 148.6C133.744 148.425 133.756 148.225 133.731 148H132.771V146.073H134.624V148.075C134.624 148.73 134.469 149.225 134.159 149.56C133.849 149.895 133.386 150.013 132.771 149.913ZM137.177 147.985V146.41L141.797 142.292C142.157 141.972 142.407 141.67 142.547 141.385C142.687 141.1 142.757 140.825 142.757 140.56C142.757 140.2 142.679 139.88 142.524 139.6C142.369 139.315 142.154 139.09 141.879 138.925C141.609 138.76 141.297 138.677 140.942 138.677C140.567 138.677 140.234 138.765 139.944 138.94C139.659 139.11 139.437 139.337 139.277 139.622C139.117 139.907 139.042 140.215 139.052 140.545H137.192C137.192 139.825 137.352 139.197 137.672 138.662C137.997 138.127 138.442 137.712 139.007 137.417C139.577 137.122 140.234 136.975 140.979 136.975C141.669 136.975 142.289 137.13 142.839 137.44C143.389 137.745 143.822 138.17 144.137 138.715C144.452 139.255 144.609 139.877 144.609 140.582C144.609 141.097 144.539 141.53 144.399 141.88C144.259 142.23 144.049 142.552 143.769 142.847C143.494 143.142 143.152 143.47 142.742 143.83L139.464 146.732L139.299 146.282H144.609V147.985H137.177ZM150.297 148.225C149.532 148.225 148.857 148.063 148.272 147.737C147.687 147.407 147.23 146.95 146.9 146.365C146.575 145.78 146.412 145.105 146.412 144.34V140.86C146.412 140.095 146.575 139.42 146.9 138.835C147.23 138.25 147.687 137.795 148.272 137.47C148.857 137.14 149.532 136.975 150.297 136.975C151.062 136.975 151.735 137.14 152.315 137.47C152.9 137.795 153.357 138.25 153.687 138.835C154.017 139.42 154.182 140.095 154.182 140.86V144.34C154.182 145.105 154.017 145.78 153.687 146.365C153.357 146.95 152.9 147.407 152.315 147.737C151.735 148.063 151.062 148.225 150.297 148.225ZM150.297 146.507C150.677 146.507 151.022 146.417 151.332 146.237C151.642 146.052 151.887 145.807 152.067 145.502C152.247 145.192 152.337 144.847 152.337 144.467V140.725C152.337 140.34 152.247 139.995 152.067 139.69C151.887 139.38 151.642 139.135 151.332 138.955C151.022 138.77 150.677 138.677 150.297 138.677C149.917 138.677 149.572 138.77 149.262 138.955C148.952 139.135 148.707 139.38 148.527 139.69C148.347 139.995 148.257 140.34 148.257 140.725V144.467C148.257 144.847 148.347 145.192 148.527 145.502C148.707 145.807 148.952 146.052 149.262 146.237C149.572 146.417 149.917 146.507 150.297 146.507ZM160.17 148.225C159.405 148.225 158.73 148.063 158.145 147.737C157.56 147.407 157.103 146.95 156.773 146.365C156.448 145.78 156.285 145.105 156.285 144.34V140.86C156.285 140.095 156.448 139.42 156.773 138.835C157.103 138.25 157.56 137.795 158.145 137.47C158.73 137.14 159.405 136.975 160.17 136.975C160.935 136.975 161.608 137.14 162.188 137.47C162.773 137.795 163.23 138.25 163.56 138.835C163.89 139.42 164.055 140.095 164.055 140.86V144.34C164.055 145.105 163.89 145.78 163.56 146.365C163.23 146.95 162.773 147.407 162.188 147.737C161.608 148.063 160.935 148.225 160.17 148.225ZM160.17 146.507C160.55 146.507 160.895 146.417 161.205 146.237C161.515 146.052 161.76 145.807 161.94 145.502C162.12 145.192 162.21 144.847 162.21 144.467V140.725C162.21 140.34 162.12 139.995 161.94 139.69C161.76 139.38 161.515 139.135 161.205 138.955C160.895 138.77 160.55 138.677 160.17 138.677C159.79 138.677 159.445 138.77 159.135 138.955C158.825 139.135 158.58 139.38 158.4 139.69C158.22 139.995 158.13 140.34 158.13 140.725V144.467C158.13 144.847 158.22 145.192 158.4 145.502C158.58 145.807 158.825 146.052 159.135 146.237C159.445 146.417 159.79 146.507 160.17 146.507Z" fill="#22293E"/>
<rect x="114" y="187" width="18" height="21" rx="2" fill="#8EF6E4"/>
<path d="M118.284 216.09C117.954 216.09 117.679 216.004 117.459 215.832C117.241 215.66 117.088 215.428 117 215.136L117.714 214.965C117.736 215.087 117.8 215.192 117.906 215.28C118.012 215.368 118.129 215.412 118.257 215.412C118.341 215.412 118.43 215.39 118.524 215.346C118.618 215.3 118.688 215.227 118.734 215.127C118.762 215.063 118.778 214.987 118.782 214.899C118.788 214.809 118.791 214.705 118.791 214.587V211.68H119.523V214.587C119.523 214.721 119.522 214.839 119.52 214.941C119.52 215.041 119.51 215.136 119.49 215.226C119.472 215.314 119.435 215.405 119.379 215.499C119.261 215.703 119.107 215.853 118.917 215.949C118.727 216.043 118.516 216.09 118.284 216.09ZM120.009 216L121.371 211.68H122.43L123.792 216H123.048L121.812 212.124H121.974L120.753 216H120.009ZM120.768 215.064V214.389H123.036V215.064H120.768ZM124.334 216V211.68H125.066L127.07 214.725V211.68H127.802V216H127.07L125.066 212.955V216H124.334Z" fill="#BAB8D2"/>
<rect x="138" y="172" width="18" height="36" rx="2" fill="#8EF6E4"/>
<path d="M142.42 216V211.68H145.021V212.403H143.143V213.48H144.661V214.2H143.143V216H142.42ZM145.561 216V211.68H148.351V212.358H146.284V213.423H147.991V214.101H146.284V215.322H148.351V216H145.561ZM149.07 216V211.68H150.783C151.075 211.68 151.314 211.739 151.5 211.857C151.688 211.973 151.827 212.122 151.917 212.304C152.009 212.486 152.055 212.674 152.055 212.868C152.055 213.106 151.998 213.308 151.884 213.474C151.772 213.64 151.619 213.752 151.425 213.81V213.66C151.697 213.722 151.903 213.851 152.043 214.047C152.185 214.243 152.256 214.466 152.256 214.716C152.256 214.972 152.207 215.196 152.109 215.388C152.011 215.58 151.865 215.73 151.671 215.838C151.479 215.946 151.241 216 150.957 216H149.07ZM149.802 215.319H150.867C150.993 215.319 151.106 215.294 151.206 215.244C151.306 215.192 151.384 215.12 151.44 215.028C151.498 214.934 151.527 214.823 151.527 214.695C151.527 214.579 151.502 214.475 151.452 214.383C151.402 214.291 151.329 214.218 151.233 214.164C151.137 214.108 151.022 214.08 150.888 214.08H149.802V215.319ZM149.802 213.405H150.774C150.878 213.405 150.971 213.385 151.053 213.345C151.135 213.305 151.2 213.246 151.248 213.168C151.296 213.09 151.32 212.994 151.32 212.88C151.32 212.73 151.272 212.605 151.176 212.505C151.08 212.405 150.946 212.355 150.774 212.355H149.802V213.405Z" fill="#BAB8D2"/>
<rect x="162" y="180" width="18" height="28" rx="2" fill="#8EF6E4"/>
<path d="M164.42 216V211.68H165.071L166.565 214.74L168.059 211.68H168.71V216H168.035V213.231L166.709 216H166.421L165.098 213.231V216H164.42ZM169.253 216L170.615 211.68H171.674L173.036 216H172.292L171.056 212.124H171.218L169.997 216H169.253ZM170.012 215.064V214.389H172.28V215.064H170.012ZM173.578 216V211.68H175.363C175.405 211.68 175.459 211.682 175.525 211.686C175.591 211.688 175.652 211.694 175.708 211.704C175.958 211.742 176.164 211.825 176.326 211.953C176.49 212.081 176.611 212.243 176.689 212.439C176.769 212.633 176.809 212.849 176.809 213.087C176.809 213.439 176.72 213.742 176.542 213.996C176.364 214.248 176.091 214.404 175.723 214.464L175.414 214.491H174.301V216H173.578ZM176.059 216L175.207 214.242L175.942 214.08L176.878 216H176.059ZM174.301 213.816H175.333C175.373 213.816 175.418 213.814 175.468 213.81C175.518 213.806 175.564 213.798 175.606 213.786C175.726 213.756 175.82 213.703 175.888 213.627C175.958 213.551 176.007 213.465 176.035 213.369C176.065 213.273 176.08 213.179 176.08 213.087C176.08 212.995 176.065 212.901 176.035 212.805C176.007 212.707 175.958 212.62 175.888 212.544C175.82 212.468 175.726 212.415 175.606 212.385C175.564 212.373 175.518 212.366 175.468 212.364C175.418 212.36 175.373 212.358 175.333 212.358H174.301V213.816Z" fill="#BAB8D2"/>
<rect x="186" y="166" width="18" height="42" rx="2" fill="#8EF6E4"/>
<path d="M189.12 216L190.482 211.68H191.541L192.903 216H192.159L190.923 212.124H191.085L189.864 216H189.12ZM189.879 215.064V214.389H192.147V215.064H189.879ZM193.445 216V211.68H195.23C195.272 211.68 195.326 211.682 195.392 211.686C195.458 211.688 195.519 211.694 195.575 211.704C195.825 211.742 196.031 211.825 196.193 211.953C196.357 212.081 196.478 212.243 196.556 212.439C196.636 212.633 196.676 212.849 196.676 213.087C196.676 213.323 196.636 213.539 196.556 213.735C196.476 213.929 196.354 214.09 196.19 214.218C196.028 214.346 195.823 214.429 195.575 214.467C195.519 214.475 195.457 214.481 195.389 214.485C195.323 214.489 195.27 214.491 195.23 214.491H194.168V216H193.445ZM194.168 213.816H195.2C195.24 213.816 195.285 213.814 195.335 213.81C195.385 213.806 195.431 213.798 195.473 213.786C195.593 213.756 195.687 213.703 195.755 213.627C195.825 213.551 195.874 213.465 195.902 213.369C195.932 213.273 195.947 213.179 195.947 213.087C195.947 212.995 195.932 212.901 195.902 212.805C195.874 212.707 195.825 212.62 195.755 212.544C195.687 212.468 195.593 212.415 195.473 212.385C195.431 212.373 195.385 212.366 195.335 212.364C195.285 212.36 195.24 212.358 195.2 212.358H194.168V213.816ZM197.277 216V211.68H199.062C199.104 211.68 199.158 211.682 199.224 211.686C199.29 211.688 199.351 211.694 199.407 211.704C199.657 211.742 199.863 211.825 200.025 211.953C200.189 212.081 200.31 212.243 200.388 212.439C200.468 212.633 200.508 212.849 200.508 213.087C200.508 213.439 200.419 213.742 200.241 213.996C200.063 214.248 199.79 214.404 199.422 214.464L199.113 214.491H198V216H197.277ZM199.758 216L198.906 214.242L199.641 214.08L200.577 216H199.758ZM198 213.816H199.032C199.072 213.816 199.117 213.814 199.167 213.81C199.217 213.806 199.263 213.798 199.305 213.786C199.425 213.756 199.519 213.703 199.587 213.627C199.657 213.551 199.706 213.465 199.734 213.369C199.764 213.273 199.779 213.179 199.779 213.087C199.779 212.995 199.764 212.901 199.734 212.805C199.706 212.707 199.657 212.62 199.587 212.544C199.519 212.468 199.425 212.415 199.305 212.385C199.263 212.373 199.217 212.366 199.167 212.364C199.117 212.36 199.072 212.358 199.032 212.358H198V213.816Z" fill="#BAB8D2"/>
<rect x="210" y="160" width="18" height="48" rx="2" fill="#8EF6E4"/>
<path d="M213.42 216V211.68H214.071L215.565 214.74L217.059 211.68H217.71V216H217.035V213.231L215.709 216H215.421L214.098 213.231V216H213.42ZM218.253 216L219.615 211.68H220.674L222.036 216H221.292L220.056 212.124H220.218L218.997 216H218.253ZM219.012 215.064V214.389H221.28V215.064H219.012ZM223.271 216V214.23L221.801 211.68H222.644L223.637 213.402L224.627 211.68H225.47L224.003 214.23V216H223.271Z" fill="#BAB8D2"/>
<defs>
<filter id="filter0_d_109_415" x="0" y="0" width="342" height="332" filterUnits="userSpaceOnUse" color-interpolation-filters="sRGB">
<feFlood flood-opacity="0" result="BackgroundImageFix"/>
<feColorMatrix in="SourceAlpha" type="matrix" values="0 0 0 0 0 0 0 0 0 0 0 0 0 0 0 0 0 0 127 0" result="hardAlpha"/>
<feOffset/>
<feGaussianBlur stdDeviation="50"/>
<feColorMatrix type="matrix" values="0 0 0 0 0.690196 0 0 0 0 0.815686 0 0 0 0 0.866667 0 0 0 1 0"/>
<feBlend mode="normal" in2="BackgroundImageFix" result="effect1_dropShadow_109_415"/>
<feBlend mode="normal" in="SourceGraphic" in2="effect1_dropShadow_109_415" result="shape"/>
</filter>
</defs>
</svg>
